{
    "asset" : {
        "generator" : "Khronos glTF Blender I/O v1.3.48",
        "version" : "2.0"
    },
    "scene" : 0,
    "scenes" : [
        {
            "name" : "Scene",
            "nodes" : [
                0
            ]
        }
    ],
    "nodes" : [
        {
            "mesh" : 0,
            "name" : "Sphere",
            "scale" : [
                0.2785279154777527,
                0.2785279154777527,
                0.2785279154777527
            ],
            "translation" : [
                -0.0007863491773605347,
                0.32497161626815796,
                0.013270735740661621
            ]
        }
    ],
    "meshes" : [
        {
            "name" : "Sphere.001",
            "primitives" : [
                {
                    "attributes" : {
                        "POSITION" : 0,
                        "NORMAL" : 1,
                        "TEXCOORD_0" : 2
                    },
                    "indices" : 3
                }
            ]
        }
    ],
    "accessors" : [
        {
            "bufferView" : 0,
            "componentType" : 5126,
            "count" : 8830,
            "max" : [
                1.33087158203125,
                0.2150043249130249,
                1.3857455253601074
            ],
            "min" : [
                -1.1783868074417114,
                -1.2764403820037842,
                -1.2385562658309937
            ],
            "type" : "VEC3"
        },
        {
            "bufferView" : 1,
            "componentType" : 5126,
            "count" : 8830,
            "type" : "VEC3"
        },
        {
            "bufferView" : 2,
            "componentType" : 5126,
            "count" : 8830,
            "type" : "VEC2"
        },
        {
            "bufferView" : 3,
            "componentType" : 5123,
            "count" : 48384,
            "type" : "SCALAR"
        }
    ],
    "bufferViews" : [
        {
            "buffer" : 0,
            "byteLength" : 105960,
            "byteOffset" : 0
        },
        {
            "buffer" : 0,
            "byteLength" : 105960,
            "byteOffset" : 105960
        },
        {
            "buffer" : 0,
            "byteLength" : 70640,
            "byteOffset" : 211920
        },
        {
            "buffer" : 0,
            "byteLength" : 96768,
            "byteOffset" : 282560
        }
    ],
    "buffers" : [
        {
            "byteLength" : 379328,
            "uri" : "data:application/octet-stream;base64,"
        }
    ]
}
