{
    "asset" : {
        "generator" : "Khronos glTF Blender I/O v1.3.48",
        "version" : "2.0"
    },
    "scene" : 0,
    "scenes" : [
        {
            "name" : "Scene",
            "nodes" : [
                0
            ]
        }
    ],
    "nodes" : [
        {
            "mesh" : 0,
            "name" : "Cube.041",
            "scale" : [
                0.09094361960887909,
                0.09094361960887909,
                0.09094361960887909
            ],
            "translation" : [
                0,
                0.4557121694087982,
                0.009168446063995361
            ]
        }
    ],
    "meshes" : [
        {
            "name" : "Cube.025",
            "primitives" : [
                {
                    "attributes" : {
                        "POSITION" : 0,
                        "NORMAL" : 1,
                        "TEXCOORD_0" : 2
                    },
                    "indices" : 3
                }
            ]
        }
    ],
    "accessors" : [
        {
            "bufferView" : 0,
            "componentType" : 5126,
            "count" : 8596,
            "max" : [
                2.184302568435669,
                3.5504541397094727,
                2.099438190460205
            ],
            "min" : [
                -2.247619390487671,
                -5.660295486450195,
                -2.3011746406555176
            ],
            "type" : "VEC3"
        },
        {
            "bufferView" : 1,
            "componentType" : 5126,
            "count" : 8596,
            "type" : "VEC3"
        },
        {
            "bufferView" : 2,
            "componentType" : 5126,
            "count" : 8596,
            "type" : "VEC2"
        },
        {
            "bufferView" : 3,
            "componentType" : 5123,
            "count" : 14856,
            "type" : "SCALAR"
        }
    ],
    "bufferViews" : [
        {
            "buffer" : 0,
            "byteLength" : 103152,
            "byteOffset" : 0
        },
        {
            "buffer" : 0,
            "byteLength" : 103152,
            "byteOffset" : 103152
        },
        {
            "buffer" : 0,
            "byteLength" : 68768,
            "byteOffset" : 206304
        },
        {
            "buffer" : 0,
            "byteLength" : 29712,
            "byteOffset" : 275072
        }
    ],
    "buffers" : [
        {
            "byteLength" : 304784,
            "uri" : "data:application/octet-stream;base64,"
        }
    ]
}
