{
    "asset" : {
        "generator" : "Khronos glTF Blender I/O v1.3.48",
        "version" : "2.0"
    },
    "scene" : 0,
    "scenes" : [
        {
            "name" : "Scene",
            "nodes" : [
                0
            ]
        }
    ],
    "nodes" : [
        {
            "mesh" : 0,
            "name" : "Cube.037",
            "scale" : [
                0.12461483478546143,
                0.12461483478546143,
                0.12461483478546143
            ],
            "translation" : [
                -0.008160525932908058,
                0.11575789749622345,
                -0.02874881960451603
            ]
        }
    ],
    "meshes" : [
        {
            "name" : "Cube.021",
            "primitives" : [
                {
                    "attributes" : {
                        "POSITION" : 0,
                        "NORMAL" : 1,
                        "TEXCOORD_0" : 2
                    },
                    "indices" : 3
                }
            ]
        }
    ],
    "accessors" : [
        {
            "bufferView" : 0,
            "componentType" : 5126,
            "count" : 2490,
            "max" : [
                1.1098074913024902,
                4.75562858581543,
                1.564091444015503
            ],
            "min" : [
                -1.1098074913024902,
                -1.0023043155670166,
                -1.2966632843017578
            ],
            "type" : "VEC3"
        },
        {
            "bufferView" : 1,
            "componentType" : 5126,
            "count" : 2490,
            "type" : "VEC3"
        },
        {
            "bufferView" : 2,
            "componentType" : 5126,
            "count" : 2490,
            "type" : "VEC2"
        },
        {
            "bufferView" : 3,
            "componentType" : 5123,
            "count" : 8964,
            "type" : "SCALAR"
        }
    ],
    "bufferViews" : [
        {
            "buffer" : 0,
            "byteLength" : 29880,
            "byteOffset" : 0
        },
        {
            "buffer" : 0,
            "byteLength" : 29880,
            "byteOffset" : 29880
        },
        {
            "buffer" : 0,
            "byteLength" : 19920,
            "byteOffset" : 59760
        },
        {
            "buffer" : 0,
            "byteLength" : 17928,
            "byteOffset" : 79680
        }
    ],
    "buffers" : [
        {
            "byteLength" : 97608,
            "uri" : "data:application/octet-stream;base64,"
        }
    ]
}
