{
    "asset" : {
        "generator" : "Khronos glTF Blender I/O v1.3.48",
        "version" : "2.0"
    },
    "scene" : 0,
    "scenes" : [
        {
            "name" : "Scene",
            "nodes" : [
                0
            ]
        }
    ],
    "nodes" : [
        {
            "mesh" : 0,
            "name" : "Cube.020",
            "scale" : [
                0.3694513738155365,
                0.21578049659729004,
                0.11776457726955414
            ],
            "translation" : [
                0,
                0.2018965631723404,
                0
            ]
        }
    ],
    "meshes" : [
        {
            "name" : "Cube.046",
            "primitives" : [
                {
                    "attributes" : {
                        "POSITION" : 0,
                        "NORMAL" : 1,
                        "TEXCOORD_0" : 2
                    },
                    "indices" : 3
                }
            ]
        }
    ],
    "accessors" : [
        {
            "bufferView" : 0,
            "componentType" : 5126,
            "count" : 24245,
            "max" : [
                1,
                0.8438765406608582,
                1
            ],
            "min" : [
                -1,
                -1,
                -1.0751086473464966
            ],
            "type" : "VEC3"
        },
        {
            "bufferView" : 1,
            "componentType" : 5126,
            "count" : 24245,
            "type" : "VEC3"
        },
        {
            "bufferView" : 2,
            "componentType" : 5126,
            "count" : 24245,
            "type" : "VEC2"
        },
        {
            "bufferView" : 3,
            "componentType" : 5123,
            "count" : 35268,
            "type" : "SCALAR"
        }
    ],
    "bufferViews" : [
        {
            "buffer" : 0,
            "byteLength" : 290940,
            "byteOffset" : 0
        },
        {
            "buffer" : 0,
            "byteLength" : 290940,
            "byteOffset" : 290940
        },
        {
            "buffer" : 0,
            "byteLength" : 193960,
            "byteOffset" : 581880
        },
        {
            "buffer" : 0,
            "byteLength" : 70536,
            "byteOffset" : 775840
        }
    ],
    "buffers" : [
        {
            "byteLength" : 846376,
            "uri" : "data:application/octet-stream;base64,"
        }
    ]
}
