{
    "asset" : {
        "generator" : "Khronos glTF Blender I/O v1.3.48",
        "version" : "2.0"
    },
    "scene" : 0,
    "scenes" : [
        {
            "name" : "Scene",
            "nodes" : [
                0,
                1,
                2,
                3,
                4,
                5,
                6,
                7,
                8,
                9,
                10
            ]
        }
    ],
    "nodes" : [
        {
            "mesh" : 0,
            "name" : "Cube",
            "scale" : [
                1,
                0.028199680149555206,
                1.006792426109314
            ],
            "translation" : [
                0.02074262872338295,
                0,
                0.006629364099353552
            ]
        },
        {
            "mesh" : 1,
            "name" : "Plane",
            "rotation" : [
                0.6993998289108276,
                0.10411481559276581,
                -0.1041148230433464,
                0.6993998289108276
            ],
            "scale" : [
                1,
                1,
                1.604865312576294
            ],
            "translation" : [
                0.03383481130003929,
                1.6071248054504395,
                1.292587399482727
            ]
        },
        {
            "mesh" : 2,
            "name" : "Plane.001",
            "rotation" : [
                0.6992346048355103,
                -0.1052190437912941,
                0.1052190512418747,
                0.6992346048355103
            ],
            "scale" : [
                1,
                1,
                1.604865312576294
            ],
            "translation" : [
                0.019264495000243187,
                1.6071248054504395,
                -1.2671561241149902
            ]
        },
        {
            "mesh" : 3,
            "name" : "Plane.002",
            "rotation" : [
                0.5,
                0.5,
                -0.5,
                0.4999999701976776
            ],
            "scale" : [
                0.9944385886192322,
                1,
                1.6048651933670044
            ],
            "translation" : [
                0.99589604139328,
                1.6125588417053223,
                0.008388177491724491
            ]
        },
        {
            "mesh" : 4,
            "name" : "Plane.003",
            "rotation" : [
                0.5,
                0.5,
                -0.5,
                0.4999999701976776
            ],
            "scale" : [
                1.5894193649291992,
                1,
                1.6048651933670044
            ],
            "translation" : [
                -0.9332749247550964,
                1.6125588417053223,
                0.01293056271970272
            ]
        },
        {
            "mesh" : 5,
            "name" : "Icosphere",
            "scale" : [
                0.4573335349559784,
                1.1733523607254028,
                0.4573335349559784
            ],
            "translation" : [
                -0.051694002002477646,
                0.11655257642269135,
                0.5786930322647095
            ]
        },
        {
            "mesh" : 6,
            "name" : "Icosphere.001",
            "scale" : [
                0.25580325722694397,
                0.25580325722694397,
                0.2997007668018341
            ],
            "translation" : [
                0.5528247952461243,
                0.005104828625917435,
                -0.44649794697761536
            ]
        },
        {
            "mesh" : 7,
            "name" : "Icosphere.002",
            "scale" : [
                0.19752448797225952,
                0.19752448797225952,
                0.19752448797225952
            ],
            "translation" : [
                -0.3630525767803192,
                0.0050828903913497925,
                -1.0023562908172607
            ]
        },
        {
            "mesh" : 8,
            "name" : "Icosphere.003",
            "scale" : [
                0.35788607597351074,
                0.7628827691078186,
                0.41930171847343445
            ],
            "translation" : [
                -0.575821578502655,
                -0.08174671232700348,
                -0.3936179280281067
            ]
        },
        {
            "mesh" : 9,
            "name" : "Cube.004",
            "scale" : [
                1,
                0.028199680149555206,
                1.006792426109314
            ],
            "translation" : [
                0.02074262872338295,
                3.2309131622314453,
                0.006629364099353552
            ]
        },
        {
            "mesh" : 10,
            "name" : "Cube.010",
            "scale" : [
                0.0535217747092247,
                0.10743340849876404,
                0.22163811326026917
            ],
            "translation" : [
                -0.6347347497940063,
                1.877348780632019,
                -1.092350721359253
            ]
        }
    ],
    "animations" : [
        {
            "channels" : [
                {
                    "sampler" : 0,
                    "target" : {
                        "node" : 10,
                        "path" : "translation"
                    }
                },
                {
                    "sampler" : 1,
                    "target" : {
                        "node" : 10,
                        "path" : "rotation"
                    }
                }
            ],
            "name" : "swim",
            "samplers" : [
                {
                    "input" : 38,
                    "interpolation" : "LINEAR",
                    "output" : 39
                },
                {
                    "input" : 38,
                    "interpolation" : "LINEAR",
                    "output" : 40
                }
            ]
        }
    ],
    "materials" : [
        {
            "doubleSided" : true,
            "emissiveFactor" : [
                0,
                0,
                0
            ],
            "name" : "Material",
            "pbrMetallicRoughness" : {
                "baseColorFactor" : [
                    0.800000011920929,
                    0.800000011920929,
                    0.800000011920929,
                    1
                ],
                "metallicFactor" : 0,
                "roughnessFactor" : 0.4000000059604645
            }
        },
        {
            "alphaMode" : "BLEND",
            "doubleSided" : true,
            "emissiveFactor" : [
                0,
                0,
                0
            ],
            "name" : "Material.001",
            "pbrMetallicRoughness" : {
                "baseColorFactor" : [
                    1,
                    1,
                    1,
                    0.1914893388748169
                ],
                "metallicFactor" : 0,
                "roughnessFactor" : 0.24822695553302765
            }
        }
    ],
    "meshes" : [
        {
            "name" : "Cube",
            "primitives" : [
                {
                    "attributes" : {
                        "POSITION" : 0,
                        "NORMAL" : 1,
                        "TEXCOORD_0" : 2
                    },
                    "indices" : 3,
                    "material" : 0
                }
            ]
        },
        {
            "name" : "Plane",
            "primitives" : [
                {
                    "attributes" : {
                        "POSITION" : 4,
                        "NORMAL" : 5,
                        "TEXCOORD_0" : 6
                    },
                    "indices" : 7,
                    "material" : 1
                }
            ]
        },
        {
            "name" : "Plane.001",
            "primitives" : [
                {
                    "attributes" : {
                        "POSITION" : 8,
                        "NORMAL" : 9,
                        "TEXCOORD_0" : 10
                    },
                    "indices" : 7,
                    "material" : 1
                }
            ]
        },
        {
            "name" : "Plane.002",
            "primitives" : [
                {
                    "attributes" : {
                        "POSITION" : 11,
                        "NORMAL" : 12,
                        "TEXCOORD_0" : 13
                    },
                    "indices" : 7,
                    "material" : 1
                }
            ]
        },
        {
            "name" : "Plane.003",
            "primitives" : [
                {
                    "attributes" : {
                        "POSITION" : 14,
                        "NORMAL" : 15,
                        "TEXCOORD_0" : 16
                    },
                    "indices" : 7
                }
            ]
        },
        {
            "name" : "Icosphere",
            "primitives" : [
                {
                    "attributes" : {
                        "POSITION" : 17,
                        "NORMAL" : 18,
                        "TEXCOORD_0" : 19
                    },
                    "indices" : 20
                }
            ]
        },
        {
            "name" : "Icosphere.001",
            "primitives" : [
                {
                    "attributes" : {
                        "POSITION" : 21,
                        "NORMAL" : 22,
                        "TEXCOORD_0" : 23
                    },
                    "indices" : 20
                }
            ]
        },
        {
            "name" : "Icosphere.002",
            "primitives" : [
                {
                    "attributes" : {
                        "POSITION" : 24,
                        "NORMAL" : 25,
                        "TEXCOORD_0" : 26
                    },
                    "indices" : 20
                }
            ]
        },
        {
            "name" : "Icosphere.003",
            "primitives" : [
                {
                    "attributes" : {
                        "POSITION" : 27,
                        "NORMAL" : 28,
                        "TEXCOORD_0" : 29
                    },
                    "indices" : 30
                }
            ]
        },
        {
            "name" : "Cube.004",
            "primitives" : [
                {
                    "attributes" : {
                        "POSITION" : 31,
                        "NORMAL" : 32,
                        "TEXCOORD_0" : 33
                    },
                    "indices" : 3,
                    "material" : 0
                }
            ]
        },
        {
            "name" : "Cube.010",
            "primitives" : [
                {
                    "attributes" : {
                        "POSITION" : 34,
                        "NORMAL" : 35,
                        "TEXCOORD_0" : 36
                    },
                    "indices" : 37
                }
            ]
        }
    ],
    "accessors" : [
        {
            "bufferView" : 0,
            "componentType" : 5126,
            "count" : 40,
            "max" : [
                1,
                1,
                1.6333874464035034
            ],
            "min" : [
                -1.0097553730010986,
                -1,
                -1.6333874464035034
            ],
            "type" : "VEC3"
        },
        {
            "bufferView" : 1,
            "componentType" : 5126,
            "count" : 40,
            "type" : "VEC3"
        },
        {
            "bufferView" : 2,
            "componentType" : 5126,
            "count" : 40,
            "type" : "VEC2"
        },
        {
            "bufferView" : 3,
            "componentType" : 5123,
            "count" : 60,
            "type" : "SCALAR"
        },
        {
            "bufferView" : 4,
            "componentType" : 5126,
            "count" : 24,
            "max" : [
                1,
                0,
                1
            ],
            "min" : [
                -1.0054017305374146,
                -0.01977653242647648,
                -1
            ],
            "type" : "VEC3"
        },
        {
            "bufferView" : 5,
            "componentType" : 5126,
            "count" : 24,
            "type" : "VEC3"
        },
        {
            "bufferView" : 6,
            "componentType" : 5126,
            "count" : 24,
            "type" : "VEC2"
        },
        {
            "bufferView" : 7,
            "componentType" : 5123,
            "count" : 36,
            "type" : "SCALAR"
        },
        {
            "bufferView" : 8,
            "componentType" : 5126,
            "count" : 24,
            "max" : [
                1,
                0,
                1
            ],
            "min" : [
                -1,
                -0.018131854012608528,
                -1
            ],
            "type" : "VEC3"
        },
        {
            "bufferView" : 9,
            "componentType" : 5126,
            "count" : 24,
            "type" : "VEC3"
        },
        {
            "bufferView" : 10,
            "componentType" : 5126,
            "count" : 24,
            "type" : "VEC2"
        },
        {
            "bufferView" : 11,
            "componentType" : 5126,
            "count" : 24,
            "max" : [
                1,
                0,
                1
            ],
            "min" : [
                -1,
                -0.018131854012608528,
                -1
            ],
            "type" : "VEC3"
        },
        {
            "bufferView" : 12,
            "componentType" : 5126,
            "count" : 24,
            "type" : "VEC3"
        },
        {
            "bufferView" : 13,
            "componentType" : 5126,
            "count" : 24,
            "type" : "VEC2"
        },
        {
            "bufferView" : 14,
            "componentType" : 5126,
            "count" : 24,
            "max" : [
                1,
                0,
                1
            ],
            "min" : [
                -1,
                -0.018131854012608528,
                -1
            ],
            "type" : "VEC3"
        },
        {
            "bufferView" : 15,
            "componentType" : 5126,
            "count" : 24,
            "type" : "VEC3"
        },
        {
            "bufferView" : 16,
            "componentType" : 5126,
            "count" : 24,
            "type" : "VEC2"
        },
        {
            "bufferView" : 17,
            "componentType" : 5126,
            "count" : 37,
            "max" : [
                0.9882625341415405,
                0.7202968597412109,
                1.1844203472137451
            ],
            "min" : [
                -0.93699711561203,
                -0.08930040895938873,
                -0.9589990377426147
            ],
            "type" : "VEC3"
        },
        {
            "bufferView" : 18,
            "componentType" : 5126,
            "count" : 37,
            "type" : "VEC3"
        },
        {
            "bufferView" : 19,
            "componentType" : 5126,
            "count" : 37,
            "type" : "VEC2"
        },
        {
            "bufferView" : 20,
            "componentType" : 5123,
            "count" : 144,
            "type" : "SCALAR"
        },
        {
            "bufferView" : 21,
            "componentType" : 5126,
            "count" : 37,
            "max" : [
                0.8657113313674927,
                1.1584818363189697,
                0.9097117185592651
            ],
            "min" : [
                -0.864666223526001,
                0.12161897867918015,
                -0.9097117185592651
            ],
            "type" : "VEC3"
        },
        {
            "bufferView" : 22,
            "componentType" : 5126,
            "count" : 37,
            "type" : "VEC3"
        },
        {
            "bufferView" : 23,
            "componentType" : 5126,
            "count" : 37,
            "type" : "VEC2"
        },
        {
            "bufferView" : 24,
            "componentType" : 5126,
            "count" : 37,
            "max" : [
                0.852165699005127,
                0.9477804899215698,
                0.9175746440887451
            ],
            "min" : [
                -0.8559972047805786,
                0.08163837343454361,
                -0.8924037218093872
            ],
            "type" : "VEC3"
        },
        {
            "bufferView" : 25,
            "componentType" : 5126,
            "count" : 37,
            "type" : "VEC3"
        },
        {
            "bufferView" : 26,
            "componentType" : 5126,
            "count" : 37,
            "type" : "VEC2"
        },
        {
            "bufferView" : 27,
            "componentType" : 5126,
            "count" : 38,
            "max" : [
                0.8657113313674927,
                0.9145856499671936,
                0.9097117185592651
            ],
            "min" : [
                -0.864666223526001,
                0.12161897867918015,
                -1.0000414848327637
            ],
            "type" : "VEC3"
        },
        {
            "bufferView" : 28,
            "componentType" : 5126,
            "count" : 38,
            "type" : "VEC3"
        },
        {
            "bufferView" : 29,
            "componentType" : 5126,
            "count" : 38,
            "type" : "VEC2"
        },
        {
            "bufferView" : 30,
            "componentType" : 5123,
            "count" : 150,
            "type" : "SCALAR"
        },
        {
            "bufferView" : 31,
            "componentType" : 5126,
            "count" : 40,
            "max" : [
                1,
                1,
                1.6333874464035034
            ],
            "min" : [
                -1.0097553730010986,
                -1,
                -1.6333874464035034
            ],
            "type" : "VEC3"
        },
        {
            "bufferView" : 32,
            "componentType" : 5126,
            "count" : 40,
            "type" : "VEC3"
        },
        {
            "bufferView" : 33,
            "componentType" : 5126,
            "count" : 40,
            "type" : "VEC2"
        },
        {
            "bufferView" : 34,
            "componentType" : 5126,
            "count" : 432,
            "max" : [
                3.579712152481079,
                3.2732958793640137,
                1.417399525642395
            ],
            "min" : [
                -3.343590259552002,
                -0.7124959826469421,
                -1.2667224407196045
            ],
            "type" : "VEC3"
        },
        {
            "bufferView" : 35,
            "componentType" : 5126,
            "count" : 432,
            "type" : "VEC3"
        },
        {
            "bufferView" : 36,
            "componentType" : 5126,
            "count" : 432,
            "type" : "VEC2"
        },
        {
            "bufferView" : 37,
            "componentType" : 5123,
            "count" : 648,
            "type" : "SCALAR"
        },
        {
            "bufferView" : 38,
            "componentType" : 5126,
            "count" : 91,
            "max" : [
                3.75
            ],
            "min" : [
                0
            ],
            "type" : "SCALAR"
        },
        {
            "bufferView" : 39,
            "componentType" : 5126,
            "count" : 91,
            "type" : "VEC3"
        },
        {
            "bufferView" : 40,
            "componentType" : 5126,
            "count" : 91,
            "type" : "VEC4"
        }
    ],
    "bufferViews" : [
        {
            "buffer" : 0,
            "byteLength" : 480,
            "byteOffset" : 0
        },
        {
            "buffer" : 0,
            "byteLength" : 480,
            "byteOffset" : 480
        },
        {
            "buffer" : 0,
            "byteLength" : 320,
            "byteOffset" : 960
        },
        {
            "buffer" : 0,
            "byteLength" : 120,
            "byteOffset" : 1280
        },
        {
            "buffer" : 0,
            "byteLength" : 288,
            "byteOffset" : 1400
        },
        {
            "buffer" : 0,
            "byteLength" : 288,
            "byteOffset" : 1688
        },
        {
            "buffer" : 0,
            "byteLength" : 192,
            "byteOffset" : 1976
        },
        {
            "buffer" : 0,
            "byteLength" : 72,
            "byteOffset" : 2168
        },
        {
            "buffer" : 0,
            "byteLength" : 288,
            "byteOffset" : 2240
        },
        {
            "buffer" : 0,
            "byteLength" : 288,
            "byteOffset" : 2528
        },
        {
            "buffer" : 0,
            "byteLength" : 192,
            "byteOffset" : 2816
        },
        {
            "buffer" : 0,
            "byteLength" : 288,
            "byteOffset" : 3008
        },
        {
            "buffer" : 0,
            "byteLength" : 288,
            "byteOffset" : 3296
        },
        {
            "buffer" : 0,
            "byteLength" : 192,
            "byteOffset" : 3584
        },
        {
            "buffer" : 0,
            "byteLength" : 288,
            "byteOffset" : 3776
        },
        {
            "buffer" : 0,
            "byteLength" : 288,
            "byteOffset" : 4064
        },
        {
            "buffer" : 0,
            "byteLength" : 192,
            "byteOffset" : 4352
        },
        {
            "buffer" : 0,
            "byteLength" : 444,
            "byteOffset" : 4544
        },
        {
            "buffer" : 0,
            "byteLength" : 444,
            "byteOffset" : 4988
        },
        {
            "buffer" : 0,
            "byteLength" : 296,
            "byteOffset" : 5432
        },
        {
            "buffer" : 0,
            "byteLength" : 288,
            "byteOffset" : 5728
        },
        {
            "buffer" : 0,
            "byteLength" : 444,
            "byteOffset" : 6016
        },
        {
            "buffer" : 0,
            "byteLength" : 444,
            "byteOffset" : 6460
        },
        {
            "buffer" : 0,
            "byteLength" : 296,
            "byteOffset" : 6904
        },
        {
            "buffer" : 0,
            "byteLength" : 444,
            "byteOffset" : 7200
        },
        {
            "buffer" : 0,
            "byteLength" : 444,
            "byteOffset" : 7644
        },
        {
            "buffer" : 0,
            "byteLength" : 296,
            "byteOffset" : 8088
        },
        {
            "buffer" : 0,
            "byteLength" : 456,
            "byteOffset" : 8384
        },
        {
            "buffer" : 0,
            "byteLength" : 456,
            "byteOffset" : 8840
        },
        {
            "buffer" : 0,
            "byteLength" : 304,
            "byteOffset" : 9296
        },
        {
            "buffer" : 0,
            "byteLength" : 300,
            "byteOffset" : 9600
        },
        {
            "buffer" : 0,
            "byteLength" : 480,
            "byteOffset" : 9900
        },
        {
            "buffer" : 0,
            "byteLength" : 480,
            "byteOffset" : 10380
        },
        {
            "buffer" : 0,
            "byteLength" : 320,
            "byteOffset" : 10860
        },
        {
            "buffer" : 0,
            "byteLength" : 5184,
            "byteOffset" : 11180
        },
        {
            "buffer" : 0,
            "byteLength" : 5184,
            "byteOffset" : 16364
        },
        {
            "buffer" : 0,
            "byteLength" : 3456,
            "byteOffset" : 21548
        },
        {
            "buffer" : 0,
            "byteLength" : 1296,
            "byteOffset" : 25004
        },
        {
            "buffer" : 0,
            "byteLength" : 364,
            "byteOffset" : 26300
        },
        {
            "buffer" : 0,
            "byteLength" : 1092,
            "byteOffset" : 26664
        },
        {
            "buffer" : 0,
            "byteLength" : 1456,
            "byteOffset" : 27756
        }
    ],
    "buffers" : [
        {
            "byteLength" : 29212,
            "uri" : "data:application/octet-stream;base64,"
        }
    ]
}
