{
    "asset" : {
        "generator" : "Khronos glTF Blender I/O v1.3.48",
        "version" : "2.0"
    },
    "scene" : 0,
    "scenes" : [
        {
            "name" : "Scene",
            "nodes" : [
                0
            ]
        }
    ],
    "nodes" : [
        {
            "mesh" : 0,
            "name" : "Cylinder.003",
            "scale" : [
                0.09108050912618637,
                -0.008930562995374203,
                0.09108050912618637
            ],
            "translation" : [
                0.008151765912771225,
                0.015382662415504456,
                -0.01992475427687168
            ]
        }
    ],
    "meshes" : [
        {
            "name" : "Cylinder.002",
            "primitives" : [
                {
                    "attributes" : {
                        "POSITION" : 0,
                        "NORMAL" : 1,
                        "TEXCOORD_0" : 2
                    },
                    "indices" : 3
                }
            ]
        }
    ],
    "accessors" : [
        {
            "bufferView" : 0,
            "componentType" : 5126,
            "count" : 4172,
            "max" : [
                1.5416514873504639,
                1,
                1
            ],
            "min" : [
                -1.4069499969482422,
                -118.89798736572266,
                -1
            ],
            "type" : "VEC3"
        },
        {
            "bufferView" : 1,
            "componentType" : 5126,
            "count" : 4172,
            "type" : "VEC3"
        },
        {
            "bufferView" : 2,
            "componentType" : 5126,
            "count" : 4172,
            "type" : "VEC2"
        },
        {
            "bufferView" : 3,
            "componentType" : 5123,
            "count" : 13104,
            "type" : "SCALAR"
        }
    ],
    "bufferViews" : [
        {
            "buffer" : 0,
            "byteLength" : 50064,
            "byteOffset" : 0
        },
        {
            "buffer" : 0,
            "byteLength" : 50064,
            "byteOffset" : 50064
        },
        {
            "buffer" : 0,
            "byteLength" : 33376,
            "byteOffset" : 100128
        },
        {
            "buffer" : 0,
            "byteLength" : 26208,
            "byteOffset" : 133504
        }
    ],
    "buffers" : [
        {
            "byteLength" : 159712,
            "uri" : "data:application/octet-stream;base64,"
        }
    ]
}
