{
    "asset" : {
        "generator" : "Khronos glTF Blender I/O v1.3.48",
        "version" : "2.0"
    },
    "scene" : 0,
    "scenes" : [
        {
            "name" : "Scene",
            "nodes" : [
                0
            ]
        }
    ],
    "nodes" : [
        {
            "mesh" : 0,
            "name" : "Cube.038",
            "scale" : [
                0.1496860831975937,
                -0.0026442797388881445,
                0.6170205473899841
            ],
            "translation" : [
                0,
                0.0047743432223796844,
                -0.19716380536556244
            ]
        }
    ],
    "meshes" : [
        {
            "name" : "Cube.022",
            "primitives" : [
                {
                    "attributes" : {
                        "POSITION" : 0,
                        "NORMAL" : 1,
                        "TEXCOORD_0" : 2
                    },
                    "indices" : 3
                }
            ]
        }
    ],
    "accessors" : [
        {
            "bufferView" : 0,
            "componentType" : 5126,
            "count" : 5776,
            "max" : [
                1,
                1,
                0.6441293358802795
            ],
            "min" : [
                -1.007678508758545,
                -62.916114807128906,
                0.1366109549999237
            ],
            "type" : "VEC3"
        },
        {
            "bufferView" : 1,
            "componentType" : 5126,
            "count" : 5776,
            "type" : "VEC3"
        },
        {
            "bufferView" : 2,
            "componentType" : 5126,
            "count" : 5776,
            "type" : "VEC2"
        },
        {
            "bufferView" : 3,
            "componentType" : 5123,
            "count" : 9924,
            "type" : "SCALAR"
        }
    ],
    "bufferViews" : [
        {
            "buffer" : 0,
            "byteLength" : 69312,
            "byteOffset" : 0
        },
        {
            "buffer" : 0,
            "byteLength" : 69312,
            "byteOffset" : 69312
        },
        {
            "buffer" : 0,
            "byteLength" : 46208,
            "byteOffset" : 138624
        },
        {
            "buffer" : 0,
            "byteLength" : 19848,
            "byteOffset" : 184832
        }
    ],
    "buffers" : [
        {
            "byteLength" : 204680,
            "uri" : "data:application/octet-stream;base64,"
        }
    ]
}
