{
    "asset" : {
        "generator" : "Khronos glTF Blender I/O v1.3.48",
        "version" : "2.0"
    },
    "scene" : 0,
    "scenes" : [
        {
            "name" : "Scene",
            "nodes" : [
                0
            ]
        }
    ],
    "nodes" : [
        {
            "mesh" : 0,
            "name" : "Cylinder.002",
            "scale" : [
                0.15155011415481567,
                0.15155011415481567,
                0.15155011415481567
            ],
            "translation" : [
                0.009135458618402481,
                0.1532125025987625,
                0.016093647107481956
            ]
        }
    ],
    "meshes" : [
        {
            "name" : "Cylinder.004",
            "primitives" : [
                {
                    "attributes" : {
                        "POSITION" : 0,
                        "NORMAL" : 1,
                        "TEXCOORD_0" : 2
                    },
                    "indices" : 3
                }
            ]
        }
    ],
    "accessors" : [
        {
            "bufferView" : 0,
            "componentType" : 5126,
            "count" : 24099,
            "max" : [
                0.9421499371528625,
                0.9437388181686401,
                0.9421499967575073
            ],
            "min" : [
                -0.9421499967575073,
                -1.0006213188171387,
                -0.9421499371528625
            ],
            "type" : "VEC3"
        },
        {
            "bufferView" : 1,
            "componentType" : 5126,
            "count" : 24099,
            "type" : "VEC3"
        },
        {
            "bufferView" : 2,
            "componentType" : 5126,
            "count" : 24099,
            "type" : "VEC2"
        },
        {
            "bufferView" : 3,
            "componentType" : 5123,
            "count" : 36468,
            "type" : "SCALAR"
        }
    ],
    "bufferViews" : [
        {
            "buffer" : 0,
            "byteLength" : 289188,
            "byteOffset" : 0
        },
        {
            "buffer" : 0,
            "byteLength" : 289188,
            "byteOffset" : 289188
        },
        {
            "buffer" : 0,
            "byteLength" : 192792,
            "byteOffset" : 578376
        },
        {
            "buffer" : 0,
            "byteLength" : 72936,
            "byteOffset" : 771168
        }
    ],
    "buffers" : [
        {
            "byteLength" : 844104,
            "uri" : "data:application/octet-stream;base64,"
        }
    ]
}
