{
    "asset" : {
        "generator" : "Khronos glTF Blender I/O v1.3.48",
        "version" : "2.0"
    },
    "scene" : 0,
    "scenes" : [
        {
            "name" : "Scene",
            "nodes" : [
                0
            ]
        }
    ],
    "nodes" : [
        {
            "mesh" : 0,
            "name" : "Cube.017",
            "scale" : [
                -0.35306379199028015,
                0.5374313592910767,
                0.024104420095682144
            ],
            "translation" : [
                -0.002252519130706787,
                0.513077974319458,
                0.03860529512166977
            ]
        }
    ],
    "meshes" : [
        {
            "name" : "Cube.017",
            "primitives" : [
                {
                    "attributes" : {
                        "POSITION" : 0,
                        "NORMAL" : 1,
                        "TEXCOORD_0" : 2
                    },
                    "indices" : 3
                }
            ]
        }
    ],
    "accessors" : [
        {
            "bufferView" : 0,
            "componentType" : 5126,
            "count" : 269,
            "max" : [
                1,
                1,
                1
            ],
            "min" : [
                -1,
                -1,
                -2.405066967010498
            ],
            "type" : "VEC3"
        },
        {
            "bufferView" : 1,
            "componentType" : 5126,
            "count" : 269,
            "type" : "VEC3"
        },
        {
            "bufferView" : 2,
            "componentType" : 5126,
            "count" : 269,
            "type" : "VEC2"
        },
        {
            "bufferView" : 3,
            "componentType" : 5123,
            "count" : 504,
            "type" : "SCALAR"
        }
    ],
    "bufferViews" : [
        {
            "buffer" : 0,
            "byteLength" : 3228,
            "byteOffset" : 0
        },
        {
            "buffer" : 0,
            "byteLength" : 3228,
            "byteOffset" : 3228
        },
        {
            "buffer" : 0,
            "byteLength" : 2152,
            "byteOffset" : 6456
        },
        {
            "buffer" : 0,
            "byteLength" : 1008,
            "byteOffset" : 8608
        }
    ],
    "buffers" : [
        {
            "byteLength" : 9616,
            "uri" : "data:application/octet-stream;base64,"
        }
    ]
}
